<svg xmlns="http://www.w3.org/2000/svg" viewBox="0 0 100 100" fill="none">
  <!-- Shield background -->
  <path d="M50 5 L90 20 L90 55 C90 75 70 92 50 98 C30 92 10 75 10 55 L10 20 Z" fill="#1d4ed8"/>
  <!-- Inner shield -->
  <path d="M50 12 L83 25 L83 55 C83 72 66 87 50 93 C34 87 17 72 17 55 L17 25 Z" fill="#2563eb"/>
  <!-- Book icon -->
  <rect x="30" y="38" width="18" height="24" rx="2" fill="white" opacity="0.9"/>
  <rect x="52" y="38" width="18" height="24" rx="2" fill="white" opacity="0.9"/>
  <rect x="48" y="36" width="4" height="28" rx="1" fill="#1d4ed8"/>
  <!-- Star at top -->
  <polygon points="50,16 52,22 58,22 53,26 55,32 50,28 45,32 47,26 42,22 48,22" fill="#fbbf24"/>
</svg>
